<svg xmlns="http://www.w3.org/2000/svg" viewBox="0 0 22.3 21.36"><defs><style>.cls-1{fill:#231f20;}</style></defs><title>star</title><g id="Слой_2" data-name="Слой 2"><g id="Layer_1" data-name="Layer 1"><path class="cls-1" d="M17.12,21.36a1.5,1.5,0,0,1-.7-.17l-5.27-2.77L5.89,21.19A1.5,1.5,0,0,1,3.71,19.6l1-5.86L.45,9.59A1.5,1.5,0,0,1,1.28,7l5.89-.86L9.81.84a1.5,1.5,0,0,1,2.69,0l2.63,5.34L21,7a1.5,1.5,0,0,1,.83,2.56l-4.26,4.15,1,5.86a1.5,1.5,0,0,1-1.48,1.75Zm-6-6.14a1.51,1.51,0,0,1,.7.17l3.27,1.72-.63-3.65a1.5,1.5,0,0,1,.43-1.33l2.65-2.58L13.92,9a1.5,1.5,0,0,1-1.13-.82L11.15,4.89,9.51,8.21A1.5,1.5,0,0,1,8.39,9l-3.66.53,2.65,2.58a1.5,1.5,0,0,1,.43,1.33l-.63,3.65,3.27-1.72A1.51,1.51,0,0,1,11.15,15.22Z"/></g></g></svg>