<svg xmlns="http://www.w3.org/2000/svg" viewBox="0 0 210 190.45"><title>wallet</title><g id="Слой_2" data-name="Слой 2"><g id="Layer_1" data-name="Layer 1"><path d="M209.87,71.34c-3.64-11.86-9.58-19.44-18.68-23.8a5.38,5.38,0,0,1-.24-1.39c-.09-3.41-.08-6.89-.07-10.27,0-2.39,0-4.77,0-7.16C190.7,12.1,178.53,0,161.94,0L102.6,0H33.16C17.07,0,6,8.18,1.07,23.61a5.56,5.56,0,0,1-.29.48c-.14.22-.27.43-.4.66L0,25.43v138.3l.17.49C3.09,172.45,7,181.6,16.66,186.09c6,2.78,11,4.14,15.43,4.16,23.82.14,49.62.2,81.2.2q28,0,56,0h8.61a31.87,31.87,0,0,0,30-21.17c.42-1.13.87-2.24,1.31-3.36l.83-2.09v-92ZM159,120.8a8.25,8.25,0,0,1,8.18-8.29c3.06-.13,6.38-.2,10.42-.2,2.62,0,5.26,0,7.93.05l5.32,0V129l-5.3,0c-2.69,0-5.37.06-8,.06-4.12,0-7.48-.07-10.6-.22A8.16,8.16,0,0,1,159,120.8Zm7.37-26.69c-10.24.32-18.21,5.36-23,14.56-4.59,8.75-4.16,17.83,1.22,26.26a26,26,0,0,0,22.61,12.45c6.11.05,12.22,0,18.4,0h5.25c0,1,.06,1.93.1,2.87a58.28,58.28,0,0,1-.28,11.34c-1,6.24-7,10.45-14.87,10.48q-20.78.07-41.57,0H35.79c-11.65,0-17.08-5.37-17.09-16.88q0-33.74,0-67.47V60.88l4.3.62A111.79,111.79,0,0,0,38.84,63.1c19.39.1,40.22.15,67.52.15h68.49c11.19,0,16.42,5.18,16.45,16.3,0,3.79,0,7.57,0,11.55v3l-5.73,0c-2.82,0-5.62,0-8.39,0C173,94,169.58,94,166.37,94.11Zm5.74-52.2v2.48c-.42,0-.79,0-1.15,0H147.42q-57.19,0-114.39,0A14.71,14.71,0,0,1,21.8,39.81a12.73,12.73,0,0,1-3-10.11c.82-7,6.3-11.31,14.31-11.35q10.94-.06,21.89,0H159.56c9.14,0,12.54,3.39,12.55,12.49C172.12,34.47,172.12,38.11,172.12,41.91Z"/></g></g></svg>